<svg id="HeaderClouds" xmlns="http://www.w3.org/2000/svg" width="1920" height="872" viewBox="0 0 1920 872">
  <defs>
    <style>
      .cls-1 {
        fill: #d69a61;
      }

      .cls-1, .cls-2, .cls-3, .cls-4, .cls-5, .cls-6, .cls-7 {
        fill-rule: evenodd;
      }

      .cls-2 {
        fill: #dba775;
      }

      .cls-3 {
        fill: #e0b389;
      }

      .cls-4 {
        fill: #e6c09d;
      }

      .cls-5 {
        fill: #ebcdb0;
      }

      .cls-6 {
        fill: #f0d9c4;
      }

      .cls-7 {
        fill: #f7e9de;
      }
    </style>
  </defs>
  <path id="cloud1" class="cls-1" d="M1635-1980.84c-37.81,2.92-104.18,47.49-125,27.84-1.96,2.25-56.77,31.31-63.78,15.77-2.76,5.54-51.01,17.07-64.82,0-3.21,1.93-32.69-18.3-48.89-35-1.37,3.45-16.33,13.66-21.61,4.31-4.97,1.69-108.75,44.44-160.9,13.92-8.66,31.28-94.55-36.75-61-57-52.87-33.19,23.59-75.57,44.55-46.91,0.94-4.55,4.62-16.26,25.93-12.93-4.3-60.28,130.51-62.59,114.46-1.22,2.49-8.08,22.11-4.47,21.61,8,16.8-8.63,44.92,4.85,49.92,14.3-1.75-1.08,8.34-12.82,17.29-4.3-29.75-40.04,43.36-79.64,43.21-47.38,7.73-23.79,49.06-15.67,43.21,4.3,2.44-10.16,30.36-.29,21.61,12.93,14.49-10.77,95.01-13.95,77.78,73.22,1.65-3.04,13.4-4.16,12.97,8.61,7.34-24.74,43.85,9.29,38.89,17.23C1618.77-1983.92,1608.69-1981.08,1635-1980.84ZM164-1985c25.531,29.01,138.186,96.65,159,77,1.956,2.25,44.757-48.69,51.766-64.22,2.758,5.53,29.43,42.29,43.234,25.22,3.215,1.93,49.275,36.47,65.471,19.78,1.37,3.45,31.249,22.57,36.529,13.22,4.97,1.69,82.186,43.32,114,9,16.334,18.99,174.463,25.05,99-64,31.055-36.31-88.041-82.65-109-54-0.936-4.55-16.2-17.16-37.5-13.82,4.293-60.27-69.808-74.77-73.457-17.23-2.5-8.07-21.473-7.38-21.6,0-2.828-1.63-20.919-5.14-25.927,4.31,1.755-1.09-8.33-12.82-17.284-4.31,29.746-40.02-43.359-79.61-43.21-47.36-7.723-23.79-49.05-15.67-43.21,4.3-2.438-10.16-30.358-.29-21.605,12.92-14.491-10.77-95-13.94-77.778,73.21-1.642-3.04-13.394-4.16-12.963,8.61-7.337-24.73-48.413-1.57-43.457,6.37C187.66-1994.78,194.908-1985.23,164-1985Z"/>
  <path id="cloud2" class="cls-2" d="M666-1900c-26.3,54.72-153.778,196.78-272,108-57.54,27.89-126.017-131.76-92.728-129.75-1.276-4.37,10.954-26.96,32.309-16.25-8.485-39.69,54.341-46.76,58.153-41.47-0.056-31.3,47.8-6.73,46.654,0,1.641-2.25,12.536-3.89,13.914,3.47,24.824-34.41,48.851,10.49,34.783,20.78,15.086-14.56,61.8,1.18,64.544,12.22C577.214-1992.51,638.527-1898.85,666-1900Zm848-25.5c-75.86,17.87-44.3,82.19-119,90.5-26.84,17.15-123.58-116.76-90.29-114.75-1.27-4.37,1.36-9.97,10.44-6.93-10.02-9,21.12-26.08,24.93-20.79-0.05-31.3,32.45-6.73,31.31,0,1.64-2.25,12.53-3.89,13.91,3.47,24.83-34.41,48.85,10.49,34.78,20.78,7.42-5.35,14.65-1.43,17.4,3.47C1463.06-1999.26,1486.53-1924.35,1514-1925.5Z"/>
  <path id="cloud3" class="cls-3" d="M406.9-1729.47c35.457,22.7,66.4,8.53,69.068,5.32,19.591,47.01,115.319,24.49,138.884,8,15.1,35.85,67.2,19.33,69.068,5.31,2.172,18.97,45.667,22.17,63.755,10.64,14.461,31.74,59.274,23.83,63.755,15.96,42.871,34.49,155.534,7.74,154.074-10.64,45.393,42.44,186.423,37.14,201.893,0,12.44,19.14,42.88,3.42,42.5-5.32,3.55,14.26,248.34,57.49,265.65,0,24.56,32.69,73.71,19.47,74.38,0,4.59,19.27,27.47,3.17,26.56-5.32,19.65,45.68,93.78,102.17,95.63,72.14,13.34,36.54,68.33,23.72,79.7,10.64,7.74,11.43,37.01,3.05,37.19-10.64,51.86,53.18,119.83-53.37,132.82-61.5,5.43,11.23,31.25,1.05,31.88-10.64,35.99,41.27,92.46-8.46,69.07-31.91,39.48-29.49-47.02-80.83-63.76-47.86,10.9-40.95-21.24-75.8-53.13-63.82-0.75-6.18,1.92-48.52-37.19-42.55,72.56-48.87,57.23-142.3-10.62-132.96-4.36-11.46-2.49-28.72-31.88-31.91,84.77-125.5-93.27-204.33-132.82-63.82-2.34-2.79-17.4-7.55-21.26,5.32-28.94-57.41-113.16-4.34-95.63,47.87-11.74-2.82-28.84.04-26.56,15.95-11.1-6.98-37.7,3.33-26.57,15.96-52.95-17.64-110.51,86.89-90.32,127.64-6.02-.25-18.23,13.86-10.62,21.27-7.21-3.49-29.61,1.99-26.57,21.27-3.16-5.18-18.76-8.69-26.56,0,16.08-17.32-13.93-41.29-26.57-31.91,39.66-143.73-187.46-171.8-191.26-90.41-6.97-10.32-40.83,10.09-26.57,31.91-6.89-6.02-30.13-.21-26.56,10.64,1.57-36.74-58.37-28.26-63.76-10.64-3.87-19.3-17.37-16.4-21.25-10.64-4.68,6.96-1.45-34.47-31.874-21.27C903.133-2238.07,653.744-2014.33,706-1901c-6.387-11.04-26.489-8.22-27.39-1.3-55.859-49.99-100.563,28.79-79.694,74.46-4.179-6.39-45.123-15.13-53.877-8-38.793-45.43-110.165,18.13-90.32,53.18-2.523-.64-13.35,6.09-26.564,10.64C399.987-1762.32,413.464-1746.73,406.9-1729.47Z"/>
  <path id="cloud4" class="cls-4" d="M1440.1-1580.5c-35.46,22.72-66.41,8.54-69.07,5.32-19.59,47.04-93.32,63.7-116.89,47.2-15.1,35.87-67.19,19.34-69.06,5.32-2.18,18.98-45.67,22.17-63.76,10.64-14.46,31.75-59.27-23.36-63.75-31.23-42.87,34.5-155.537,7.74-154.077-10.64-45.394,42.46-186.428,37.15-201.891,0-12.44,19.15-42.881,3.42-42.5-5.32-3.552,14.26-248.337,57.5-265.646,0-24.562,32.7-73.717,19.47-74.38,0-4.593,19.27-27.47,3.16-26.565-5.32-19.65,45.69-93.781,46-95.632,15.96-13.338,36.55-68.324,23.72-79.694,10.64-7.742,11.43-37.014,3.06-37.19-10.64-51.866,53.2-119.832,2.81-132.823-5.32-5.434,11.23-31.248,1.05-31.878-10.64-36,41.28-92.458-8.47-69.068-31.93-39.484-29.51,47.019-80.87,63.755-47.88-10.9-40.97,21.238-75.83,53.129-63.85,0.756-6.18-1.923-48.54,37.19-42.56-72.558-48.9-57.228-142.36,10.626-133.02,4.357-11.47,2.482-28.73,31.877-31.92-84.771-125.55,93.268-204.41,132.823-63.84,2.341-2.8,17.391-7.56,21.252,5.32,28.94-57.44,113.167-4.35,95.632,47.88,11.747-2.82,28.84.05,26.565,15.96,11.1-6.98,37.694,3.33,26.564,15.96,52.955-17.64,110.509,86.93,90.32,127.7,6.027-.25,18.235,13.87,10.626,21.28,7.2-3.49,29.61,1.99,26.564,21.28,3.167-5.18,18.762-8.7,26.565,0-16.078-17.33,13.928-41.31,26.564-31.92-39.658-143.8,187.462-171.88,191.265-90.45,6.971-10.32,40.832,10.09,26.564,31.92,6.893-6.02,30.139-.21,26.565,10.64-1.575-36.75,58.373-28.27,63.755-10.64,3.871-19.3,17.372-16.41,21.252-10.64,4.681,6.96,1.449-34.48,31.877-21.28,78.313-250.79,323.216-17.6,270.956,95.77,6.39-11.05,30.98-17.57,31.88-10.64,55.86-50.02,100.56,28.79,79.69,74.48,4.18-6.39,23.13-7.13,31.88,0,38.79-45.45,110.17,18.14,90.32,53.21,2.52-.65,13.35,6.09,26.56,10.64C1447.01-1613.36,1433.54-1597.76,1440.1-1580.5Z"/>
  <path id="cloud5" class="cls-5" d="M-6.625-1417.79c42.584,15.99,79.753,6.01,82.951,3.75,23.528,33.1,112.078,11.61,140.379,0,18.137,25.24,80.706,13.61,82.952,3.74,2.609,13.36,54.846,15.61,76.57,7.49,17.368,22.35,71.189,16.78,76.571,11.24,51.488,24.28,186.8,79.61,185.045,66.67,54.519,29.88,223.9,26.15,242.473,0,14.941,13.48,75.043,26.7,88.684,12.06,13.1,17.9,260.62,24.67,281.41-15.81,29.5,23.02,88.53-60.45,89.33-74.16,5.52,13.57,32.99,2.23,31.9-3.74,23.6,32.16,112.64,32.38,114.86,11.23,16.02,25.73,82.06,16.7,95.71,7.49,9.3,8.05,44.46,2.15,44.67-7.49,62.29,37.44,143.92,1.98,159.52-3.74,6.53,7.9,37.53.74,38.29-7.49,43.23,29.05,111.04-5.96,82.95-22.47,47.42-20.77-56.47-56.91-76.57-33.7,13.08-28.83-25.51-53.36-63.81-44.93-0.91-4.35,2.31-34.17-44.67-29.96,87.15-34.41,68.73-100.19-12.76-93.61-5.23-8.07-2.98-20.22-38.29-22.47,66.94-61.38-128.75-126.69-159.52-44.93-2.81-1.97-20.88-5.32-25.52,3.74-34.76-40.42-135.92-3.05-114.86,33.7-14.1-1.98-34.63.04-31.9,11.24-13.33-4.92-45.27,2.34-31.91,11.23-63.59-12.41-132.72,61.18-108.47,89.87-7.24-.18-21.9,9.76-12.76,14.98-8.65-2.46-35.56,1.4-31.91,14.97-3.8-3.64-22.53-6.12-31.9,0,19.31-12.19-16.73-29.07-31.9-22.46,47.63-101.2-225.149-120.97-229.716-63.66-8.372-7.26-49.04,7.11-31.9,22.47-8.278-4.24-36.2-.15-31.9,7.49,1.891-25.87-70.107-19.9-76.571-7.49-4.648-13.59-20.864-11.55-25.523-7.49-5.623,4.9-1.741-24.27-38.285-14.98-94.055-176.49-388.185-12.39-325.425,67.4-7.671-7.77-37.2-12.36-38.285-7.49-67.088-35.2-120.777,20.27-95.713,52.43-5.02-4.5-27.771-5.03-38.285,0-46.592-31.99-132.31,12.76-108.475,37.44-3.031-.46-16.035,4.29-31.9,7.49C-14.932-1440.91,1.254-1429.93-6.625-1417.79Z"/>
  <path id="cloud6" class="cls-6" d="M963.062-1352.31c-31.969,2.47-52.5,27.86-97.6,24.35-25.734,45.2-80.064,5.88-91.053-12.18-6.211,25.64-59.057,20.99-61,0-4.959,9.14-68.113,27.49-97.6,12.18-22.651,34.13-200.318,16.53-207.39,0-17.887,22.89-155.529,25.44-170.793-12.18-12.5,19.87-64.814,46.21-109.794,0-5.224,34.84-140.3,33.84-134.194,12.18-7.725,17.51-84.291,22.02-97.6-12.18,4.551,12.25-89.738,47.63-97.595,12.18-68.323,69.62-183.128-112.77-24.4-146.14-22.594-7.01-10.731-68.2,36.6-60.89-14.788-37.12,10.37-110.62,48.8-109.6C-270.577-2005.27,246.2-1983.83,103.444-1754.2c32.786-34.91,123.193,69.01,48.8,97.43,23.262-8.14,38.84,25.85,36.6,48.71,75.217-96.88,237.072-10.11,207.39,85.25,119.854-96.5,223.711,55.18,182.992,121.78,12.344-20.26,43.254-11.86,36.6,12.18,9.543-17.9,35.249-5.42,36.6,0,19.088-51.41,87.178-30.91,97.6,0C892.463-1396.1,877.334-1354.53,963.062-1352.31Zm-9.061,0c31.967,2.47,52.5,27.86,97.589,24.35,25.73,45.2,80.06,5.88,91.05-12.18,6.21,25.64,59.05,20.99,60.99,0,4.96,9.14,68.11,27.49,97.6,12.18,22.65,34.13,200.3,16.53,207.38,0,17.88,22.89,155.52,25.44,170.78-12.18,12.5,19.87,64.81,46.21,109.79,0,5.22,34.84,140.29,33.84,134.19,12.18,7.72,17.51,84.28,22.02,97.59-12.18-4.55,12.25,89.73,47.63,97.59,12.18,68.32,69.62,183.12-112.77,24.4-146.14,22.59-7.01,10.73-68.2-36.6-60.89,14.79-37.12-10.37-110.62-48.8-109.6,130.03-360.68-386.72-339.24-243.97-109.61-32.79-34.91-123.19,69.01-48.8,97.43-23.26-8.14-38.84,25.85-36.6,48.71-75.21-96.88-237.06-10.11-207.38,85.25-119.84-96.5-223.7,55.18-182.98,121.78-12.34-20.26-43.25-11.86-36.59,12.18-9.55-17.9-35.25-5.42-36.6,0-19.09-51.41-87.18-30.91-97.59,0C1024.6-1396.1,1039.72-1354.53,954-1352.31Z"/>
  <path id="cloudFooter" class="cls-7" d="M2022.91,939.952c-51.8,33.155-97.02,12.464-100.91,7.767-28.63,68.661-168.5,35.769-202.93,11.684-22.06,52.367-98.18,28.231-100.91,7.767-3.18,27.705-66.73,32.373-93.16,15.534-21.13,46.356-86.6,34.8-93.15,23.306-62.64,50.37-227.25,11.3-225.12-15.538-66.33,61.988-272.393,54.238-294.986,0-18.176,27.958-62.654,4.991-62.1-7.768-5.19,20.826-362.849,83.956-388.139,0-35.889,47.736-107.709,28.436-108.678,0-6.711,28.136-40.136,4.624-38.814-7.767-28.711,66.713-137.025,67.163-139.73,23.3C154.793,1051.6,74.452,1032.88,57.84,1013.77c-11.312,16.7-54.083,4.47-54.34-15.531-75.782,77.661-175.088,4.111-194.069-7.767-7.939,16.4-45.656,1.536-46.577-15.535-52.595,60.263-135.091-12.365-100.916-46.6-57.69-43.077,68.7-326.171,93.154-278.017-15.92-59.806,31.031-110.7,77.627-93.206,1.105-9.027-2.809-70.866,54.34-62.138C-218.957,423.6-196.558,368.9-97.416,382.54c6.366-16.744,3.626-41.946,46.577-46.6C-174.7,152.643,85.436,37.522,143.23,242.73c3.42-4.082,25.41-11.034,31.051,7.768,42.284-83.85,165.349-6.344,139.73,69.9,17.163-4.118,42.138.066,38.814,23.3,16.211-10.194,55.075,4.864,38.814,23.3,77.372-25.754,161.465,45.157,131.967,104.666,8.806-.365,26.643,20.25,15.525,31.069,10.524-5.09,43.265,2.9,38.814,31.069,4.628-7.568,27.414,40.861,38.814,53.561-23.492-25.3,20.351-60.3,38.814-46.6-57.946-209.917,273.9-250.916,279.459-132.043,10.186-15.066,59.66,14.74,38.814,46.6,10.071-8.793,44.034-.306,38.814,15.535-2.3-53.651,85.29-41.268,93.15-15.535,5.66-28.181,25.39-23.953,31.05-15.534,6.84,10.16,2.12-50.341,46.58-31.069,126.06-197.116,472.25-25.7,395.9,139.81,9.33-16.123,45.26-25.644,46.58-15.534,81.62-73.015,146.93,42.039,116.44,108.741,10.77-37.343,104.73-128.966,129.64-72.18,31.02-85.024,145.09-13.458,123.09,54.085,3.69-.944-22.53,39.414-3.23,46.056C2033.02,683.863,2013.33,914.751,2022.91,939.952Z"/>
</svg>
