<svg id="HeaderClouds" xmlns="http://www.w3.org/2000/svg" width="1920" height="1208" viewBox="0 0 1920 1208">
  <defs>
    <style>
      .cls-1 {
        fill: #d69a61;
      }

      .cls-1, .cls-2, .cls-3, .cls-4, .cls-5, .cls-6, .cls-8 {
        fill-rule: evenodd;
      }

      .cls-2 {
        fill: #dba775;
      }

      .cls-3 {
        fill: #e0b389;
      }

      .cls-4 {
        fill: #e6c09d;
      }

      .cls-5 {
        fill: #ebcdb0;
      }

      .cls-6, .cls-7 {
        fill: #f0d9c4;
      }

      .cls-8 {
        fill: #f7e9de;
      }
    </style>
  </defs>
  <path id="cloud1" class="cls-1" d="M1635,387.158c-37.81,2.922-104.18,47.5-125,27.842-1.96,2.255-56.77,31.313-63.78,15.773-2.76,5.538-51.01,17.072-64.82,0-3.21,1.928-32.69-18.3-48.89-35-1.37,3.451-16.33,13.66-21.61,4.307-4.97,1.69-108.75,44.438-160.9,13.92-8.66,31.276-94.55-36.753-61-57-52.87-33.191,23.59-75.568,44.55-46.914,0.94-4.547,4.62-16.26,25.93-12.921-4.3-60.287,130.51-62.6,114.46-1.229,2.49-8.078,22.11-4.467,21.61,8,16.8-8.624,44.92,4.852,49.92,14.307-1.75-1.087,8.34-12.826,17.29-4.307-29.75-40.037,43.36-79.632,43.21-47.379,7.73-23.788,49.06-15.665,43.21,4.307,2.44-10.16,30.36-.292,21.61,12.921,14.49-10.769,95.01-13.941,77.78,73.223,1.65-3.038,13.4-4.159,12.97,8.614,7.34-24.74,43.85,9.287,38.89,17.229C1618.77,384.076,1608.69,386.923,1635,387.158ZM164,383c25.531,29.013,138.186,96.651,159,77,1.956,2.255,44.757-48.687,51.766-64.224C377.524,401.313,404.2,438.068,418,421c3.215,1.927,49.275,36.472,65.471,19.776C484.841,444.227,514.72,463.351,520,454c4.97,1.689,82.186,43.323,114,9,16.334,18.993,174.463,25.054,99-64,31.055-36.312-88.041-82.649-109-54-0.936-4.547-16.2-17.158-37.5-13.82,4.293-60.274-69.808-74.772-73.457-17.225-2.5-8.076-21.473-7.383-21.6,0-2.828-1.635-20.919-5.146-25.927,4.306,1.755-1.086-8.33-12.823-17.284-4.306,29.746-40.029-43.359-79.616-43.21-47.37-7.723-23.783-49.05-15.661-43.21,4.306-2.438-10.157-30.358-.292-21.605,12.919-14.491-10.767-95-13.939-77.778,73.208-1.642-3.036-13.394-4.157-12.963,8.613C242.12,340.9,201.044,364.059,206,372,187.66,373.225,194.908,382.765,164,383Z"/>
  <path id="cloud2" class="cls-2" d="M666,468c-26.3,54.718-153.778,196.776-272,108-57.54,27.892-126.017-131.762-92.728-129.752C300,441.879,312.226,419.285,333.581,430c-8.485-39.693,54.341-46.756,58.153-41.467-0.056-31.3,47.8-6.733,46.654,0,1.641-2.251,12.536-3.9,13.914,3.465,24.824-34.408,48.851,10.5,34.783,20.786,15.086-14.567,61.8,1.177,64.544,12.216C577.214,375.49,638.527,469.148,666,468Zm848-25.5c-75.86,17.87-44.3,82.195-119,90.5-26.84,17.148-123.58-116.762-90.29-114.752-1.27-4.37,1.36-9.969,10.44-6.929-10.02-9,21.12-26.075,24.93-20.786-0.05-31.3,32.45-6.733,31.31,0,1.64-2.251,12.53-3.9,13.91,3.465,24.83-34.408,48.85,10.5,34.78,20.786,7.42-5.358,14.65-1.435,17.4,3.464C1463.06,368.738,1486.53,443.647,1514,442.5Z"/>
  <path id="cloud3" class="cls-3" d="M406.9,638.527c35.457,22.7,66.4,8.535,69.068,5.319,19.591,47.013,115.319,24.492,138.884,8,15.1,35.856,67.2,19.331,69.068,5.318,2.172,18.97,45.667,22.166,63.755,10.637,14.461,31.741,59.274,23.826,63.755,15.955,42.871,34.492,155.534,7.74,154.074-10.637,45.393,42.444,186.423,37.137,201.893,0,12.44,19.145,42.88,3.418,42.5-5.318,3.55,14.261,248.34,57.485,265.65,0,24.56,32.687,73.71,19.467,74.38,0,4.59,19.264,27.47,3.166,26.56-5.318,19.65,45.679,93.78,102.171,95.63,72.137,13.34,36.536,68.33,23.717,79.7,10.637,7.74,11.43,37.01,3.058,37.19-10.637,51.86,53.179,119.83-53.366,132.82-61.5,5.43,11.231,31.25,1.052,31.88-10.636,35.99,41.264,92.46-8.467,69.07-31.91,39.48-29.5-47.02-80.837-63.76-47.865,10.9-40.951-21.24-75.795-53.13-63.82-0.75-6.181,1.92-48.523-37.19-42.547,72.56-48.873,57.23-142.3-10.62-132.958-4.36-11.465-2.49-28.721-31.88-31.91,84.77-125.5-93.27-204.328-132.82-63.82-2.34-2.795-17.4-7.555-21.26,5.319-28.94-57.413-113.16-4.344-95.63,47.864-11.74-2.82-28.84.045-26.56,15.955-11.1-6.979-37.7,3.331-26.57,15.955-52.95-17.634-110.51,86.894-90.32,127.64-6.02-.25-18.23,13.865-10.62,21.273-7.21-3.485-29.61,1.987-26.57,21.274-3.16-5.183-18.76-8.7-26.56,0,16.08-17.327-13.93-41.288-26.57-31.91,39.66-143.733-187.46-171.806-191.26-90.412-6.97-10.316-40.83,10.093-26.57,31.91-6.89-6.021-30.13-.21-26.56,10.637,1.57-36.736-58.37-28.257-63.76-10.637-3.87-19.3-17.37-16.4-21.25-10.636-4.68,6.956-1.45-34.47-31.874-21.274C903.133,129.931,653.744,353.675,706,467c-6.387-11.04-26.489-8.218-27.39-1.3-55.859-49.994-100.563,28.785-79.694,74.457-4.179-6.389-45.123-15.133-53.877-8-38.793-45.431-110.165,18.124-90.32,53.183-2.523-.646-13.35,6.088-26.564,10.637C399.987,605.677,413.464,621.272,406.9,638.527Z"/>
  <path id="cloud4" class="cls-4" d="M1440.1,787.5c-35.46,22.711-66.41,8.539-69.07,5.321-19.59,47.033-93.32,63.692-116.89,47.193-15.1,35.872-67.19,19.339-69.06,5.321-2.18,18.978-45.67,22.175-63.76,10.641-14.46,31.754-59.27-23.358-63.75-31.232-42.87,34.506-155.537,7.743-154.077-10.641-45.394,42.461-186.428,37.152-201.891,0-12.44,19.153-42.881,3.419-42.5-5.321-3.552,14.267-248.337,57.509-265.646,0-24.562,32.7-73.717,19.475-74.38,0-4.593,19.273-27.47,3.167-26.565-5.32-19.65,45.7-93.781,46.008-95.632,15.961-13.338,36.551-68.324,23.727-79.694,10.641-7.742,11.435-37.014,3.059-37.19-10.641-51.866,53.2-119.832,2.818-132.823-5.32-5.434,11.235-31.248,1.053-31.878-10.641-36,41.281-92.458-8.47-69.068-31.923-39.484-29.508,47.019-80.871,63.755-47.885-10.9-40.967,21.238-75.826,53.129-63.846,0.756-6.184-1.923-48.543,37.19-42.565C-72.26,568.354-56.929,474.888,10.924,484.234c4.357-11.469,2.482-28.733,31.877-31.923C-41.969,326.756,136.07,247.9,175.624,388.465c2.341-2.8,17.391-7.558,21.252,5.321,28.94-57.437,113.167-4.345,95.632,47.884,11.747-2.821,28.84.045,26.565,15.962,11.1-6.983,37.694,3.332,26.564,15.961,52.955-17.641,110.509,86.93,90.32,127.693,6.027-.25,18.235,13.871,10.626,21.282,7.2-3.487,29.61,1.987,26.564,21.282,3.167-5.184,18.762-8.7,26.565,0-16.078-17.334,13.928-41.305,26.564-31.923C486.618,468.135,713.738,440.05,717.541,521.478c6.971-10.32,40.832,10.1,26.564,31.923,6.893-6.023,30.139-.21,26.565,10.641-1.575-36.75,58.373-28.268,63.755-10.641,3.871-19.3,17.372-16.408,21.252-10.641,4.681,6.96,1.449-34.484,31.877-21.282,78.313-250.783,323.216-17.6,270.956,95.769,6.39-11.044,30.98-17.566,31.88-10.641,55.86-50.014,100.56,28.8,79.69,74.488,4.18-6.392,23.13-7.137,31.88,0,38.79-45.45,110.17,18.131,90.32,53.2,2.52-.647,13.35,6.091,26.56,10.641C1447.01,754.64,1433.54,770.242,1440.1,787.5Z"/>
  <path id="cloud5" class="cls-5" d="M-6.625,950.215c42.584,15.983,79.753,6.009,82.951,3.744,23.528,33.1,112.078,11.612,140.379,0,18.137,25.246,80.706,13.611,82.952,3.745,2.609,13.356,54.846,15.606,76.57,7.489,17.368,22.348,71.189,16.774,76.571,11.233,51.488,24.284,186.8,79.614,185.045,66.674,54.519,29.88,223.9,26.15,242.473,0,14.941,13.48,75.043,26.7,88.684,12.06,13.1,17.9,260.62,24.67,281.41-15.81,29.5,23.02,88.53-60.451,89.33-74.157,5.52,13.563,32.99,2.229,31.9-3.745,23.6,32.162,112.64,32.38,114.86,11.234,16.02,25.723,82.06,16.7,95.71,7.489,9.3,8.047,44.46,2.152,44.67-7.489,62.29,37.438,143.92,1.983,159.52-3.745,6.53,7.907,37.53.741,38.29-7.489,43.23,29.053,111.04-5.961,82.95-22.467,47.42-20.766-56.47-56.914-76.57-33.7,13.08-28.831-25.51-53.364-63.81-44.933-0.91-4.352,2.31-34.163-44.67-29.956,87.15-34.41,68.73-100.189-12.76-93.611-5.23-8.073-2.98-20.222-38.29-22.467,66.94-61.383-128.75-126.692-159.52-44.934-2.81-1.968-20.88-5.319-25.52,3.745-34.76-40.423-135.92-3.058-114.86,33.7-14.1-1.985-34.63.032-31.9,11.233-13.33-4.914-45.27,2.345-31.91,11.234-63.59-12.416-132.72,61.178-108.47,89.867-7.24-.176-21.9,9.762-12.76,14.978-8.65-2.454-35.56,1.4-31.91,14.977-3.8-3.648-22.53-6.122-31.9,0,19.31-12.2-16.73-29.069-31.9-22.466,47.63-101.2-225.149-120.963-229.716-63.656-8.372-7.263-49.04,7.106-31.9,22.467-8.278-4.24-36.2-.148-31.9,7.489,1.891-25.865-70.107-19.895-76.571-7.489-4.648-13.586-20.864-11.548-25.523-7.489-5.623,4.9-1.741-24.269-38.285-14.978C562.931,586.5,268.8,750.6,331.561,830.392c-7.671-7.773-37.2-12.363-38.285-7.489-67.088-35.2-120.777,20.267-95.713,52.423-5.02-4.5-27.771-5.023-38.285,0C112.686,843.339,26.968,888.086,50.8,912.77c-3.031-.455-16.035,4.287-31.9,7.489C-14.932,927.086,1.254,938.066-6.625,950.215Z"/>
  <path id="cloud6" class="cls-6" d="M963.062,1015.69c-31.969,2.47-52.5,27.86-97.6,24.35-25.734,45.2-80.064,5.88-91.053-12.18-6.211,25.64-59.057,20.99-61,0-4.959,9.14-68.113,27.49-97.6,12.18-22.651,34.13-200.318,16.53-207.39,0-17.887,22.89-155.529,25.44-170.793-12.18-12.5,19.87-64.814,46.21-109.794,0-5.224,34.84-140.3,33.84-134.194,12.18-7.725,17.51-84.291,22.02-97.6-12.18,4.551,12.25-89.738,47.63-97.595,12.18-68.323,69.62-183.128-112.766-24.4-146.136-22.594-7.01-10.731-68.206,36.6-60.891-14.788-37.122,10.37-110.62,48.8-109.6C-270.577,362.725,246.2,384.172,103.444,613.8c32.786-34.914,123.193,69,48.8,97.425,23.262-8.136,38.84,25.847,36.6,48.713,75.217-96.885,237.072-10.116,207.39,85.248,119.854-96.5,223.711,55.182,182.992,121.782,12.344-20.264,43.254-11.866,36.6,12.178,9.543-17.9,35.249-5.421,36.6,0,19.088-51.409,87.178-30.913,97.6,0C892.463,971.9,877.334,1013.47,963.062,1015.69Zm-9.061,0c31.967,2.47,52.5,27.86,97.589,24.35,25.73,45.2,80.06,5.88,91.05-12.18,6.21,25.64,59.05,20.99,60.99,0,4.96,9.14,68.11,27.49,97.6,12.18,22.65,34.13,200.3,16.53,207.38,0,17.88,22.89,155.52,25.44,170.78-12.18,12.5,19.87,64.81,46.21,109.79,0,5.22,34.84,140.29,33.84,134.19,12.18,7.72,17.51,84.28,22.02,97.59-12.18-4.55,12.25,89.73,47.63,97.59,12.18,68.32,69.62,183.12-112.766,24.4-146.136,22.59-7.01,10.73-68.206-36.6-60.891,14.79-37.122-10.37-110.62-48.8-109.6,130.03-360.684-386.72-339.237-243.97-109.6-32.79-34.914-123.19,69-48.8,97.425-23.26-8.136-38.84,25.847-36.6,48.713-75.21-96.885-237.06-10.116-207.38,85.248-119.84-96.5-223.7,55.182-182.98,121.782-12.34-20.264-43.25-11.866-36.59,12.178-9.55-17.9-35.25-5.421-36.6,0-19.09-51.409-87.18-30.913-97.59,0C1024.6,971.9,1039.72,1013.47,954,1015.69Z"/>
  <rect class="cls-7" x="-78" y="1016" width="2059" height="2183"/>
  <path id="cloudFooter" class="cls-8" d="M2022.91,3307.95c-51.8,33.16-97.02,12.47-100.91,7.77-28.63,68.66-168.5,35.77-202.93,11.68-22.06,52.37-98.18,28.23-100.91,7.77-3.18,27.7-66.73,32.37-93.16,15.53-21.13,46.36-86.6,34.8-93.15,23.31-62.64,50.37-227.25,11.3-225.12-15.54-66.33,61.99-272.393,54.24-294.986,0-18.176,27.96-62.654,4.99-62.1-7.77-5.19,20.83-362.849,83.96-388.139,0-35.889,47.74-107.709,28.44-108.678,0-6.711,28.14-40.136,4.63-38.814-7.76-28.711,66.71-137.025,67.16-139.73,23.3-19.488,53.36-99.829,34.64-116.441,15.53-11.312,16.7-54.083,4.47-54.34-15.53-75.782,77.66-175.088,4.11-194.069-7.77-7.939,16.4-45.656,1.54-46.577-15.53-52.595,60.26-135.091-12.37-100.916-46.61-57.69-43.07,68.7-326.17,93.154-278.01-15.92-59.81,31.031-110.7,77.627-93.21,1.105-9.03-2.809-70.86,54.34-62.14-106.016-71.37-83.617-126.07,15.525-112.43,6.366-16.74,3.626-41.95,46.577-46.6-123.86-183.3,136.275-298.42,194.069-93.21,3.42-4.08,25.41-11.03,31.051,7.77,42.284-83.85,165.349-6.35,139.73,69.9,17.163-4.12,42.138.07,38.814,23.3,16.211-10.19,55.075,4.87,38.814,23.31,77.372-25.76,161.465,45.15,131.967,104.66,8.806-.36,26.643,20.25,15.525,31.07,10.524-5.09,43.265,2.9,38.814,31.07,4.628-7.57,27.414,40.86,38.814,53.56-23.492-25.3,20.351-60.3,38.814-46.6-57.946-209.92,273.9-250.92,279.459-132.05,10.186-15.06,59.66,14.74,38.814,46.61,10.071-8.8,44.034-.31,38.814,15.53-2.3-53.65,85.29-41.27,93.15-15.53,5.66-28.18,25.39-23.96,31.05-15.54,6.84,10.16,2.12-50.34,46.58-31.07,126.06-197.11,472.25-25.69,395.9,139.81,9.33-16.12,45.26-25.64,46.58-15.53,81.62-73.01,146.93,42.04,116.44,108.74,10.77-37.34,104.73-128.96,129.64-72.18,31.02-85.02,145.09-13.46,123.09,54.09,3.69-.95-22.53,39.41-3.23,46.05C2033.02,3051.86,2013.33,3282.75,2022.91,3307.95Z"/>
</svg>
