<svg id="cactus" xmlns="http://www.w3.org/2000/svg" width="1920" height="963" viewBox="0 0 1920 963">
  <defs>
    <style>
      .cls-1 {
        fill: #f9d95a;
      }

      .cls-1, .cls-2, .cls-3, .cls-4, .cls-5, .cls-6 {
        fill-rule: evenodd;
      }

      .cls-2 {
        fill: #fff7ca;
      }

      .cls-3 {
        fill: #fff2a8;
      }

      .cls-4 {
        fill: #acc871;
      }

      .cls-5 {
        fill: #fff9df;
      }

      .cls-6 {
        fill: #fee682;
      }
    </style>
  </defs>
  <path id="sandFOOTER" class="cls-1" d="M1924.7,2720.04c-32.38-15.07-147.81-44.29-268.7-39.94-119.34,4.3-218.79,124.65-309.55,143.38-73.44,15.15-261.79-40.88-367.068-44.7-88.6-3.21-162.4,86.56-246.748,78.96-133.534-12.02-189.353-91.32-291.778-90.41-132.035,1.17-241.006-131.62-299.778-150.35-51.7-16.47-104-13.82-136.47.3s-130.657,517.35-51.415,517.35H1944.56C1965.19,3134.63,1964.6,2738.62,1924.7,2720.04Z"/>
  <path id="sandFAR" class="cls-2" d="M-0.145,548C32.227,532.9,172.131,499.641,293,504c119.322,4.3,225.079,45.855,285,59,73.235,16.066,312.3,17.006,367,10.85s199.22-22.366,242-22.85,141.8,6.523,196,15c74.08,11.586,341.39-31.544,400.15-50.3,51.69-16.5,103.98-13.852,136.44.3S2050.23,709,1971,709H-20C-40.622,709-40.035,566.608-.145,548Z"/>
  <path id="sandMIDDLE" class="cls-3" d="M13,633c37.039,10.5,286.351,55.2,328,56,129.124,2.485,366.648-58.792,499-71,114.229-10.537,353.06,90.876,452,80.275,134.78-14.439,314.77-88.337,363-94.275,40.26-4.958,218.71,3.941,271,18,54.21,14.577,154.7,244.609,53,244.609-127.76,0-1779.641-.03-2015-0.03C-203.474,866.579-16.346,624.682,13,633Z"/>
  <path id="cactus-2" data-name="cactus" class="cls-4" d="M1433.25,828.56c-11.54-30.354,19.78-269.512,20.92-286.28-60.39-29.026-81.34-52.858-94.18-79.825-14.84-31.182-44.09-258.1,16.67-283.653,61.65-13.7,24.29,127.353,35.55,228.139,4.27,38.178,18.1,61,48.46,74.678,8.22,19.839,2.25-421.708,79.83-415.491,77.78,6.234,0,334.952,8.61,370.288,23.49-.013,42.14-12.552,56.3-56.148,26.61-81.959,14.03-219.444,57.06-219.747,49.04-.345,35.52,176.412-14.22,267.809-28.03,51.5-89.78,53.017-94.32,65.756-27.59,77.447-27.43,335.577-39.47,346.854S1444.79,858.915,1433.25,828.56Z"/>
  <path class="cls-5" d="M1367.69,222.992c6.22-4.861-20.3-33.959-24.12-40.54S1361.48,227.853,1367.69,222.992Z"/>
  <path id="Shape_1_copy_10" data-name="Shape 1 copy 10" class="cls-5" d="M1396.06,263.992c-6.22-4.86,20.3-33.959,24.12-40.54S1402.27,268.853,1396.06,263.992Z"/>
  <path id="Shape_1_copy_11" data-name="Shape 1 copy 11" class="cls-5" d="M1391.06,371.992c-6.22-4.861,20.3-33.959,24.12-40.54S1397.27,376.853,1391.06,371.992Z"/>
  <path id="Shape_1_copy_12" data-name="Shape 1 copy 12" class="cls-5" d="M1405.06,479.992c-6.22-4.86,20.3-33.959,24.12-40.54S1411.27,484.853,1405.06,479.992Z"/>
  <path id="Shape_1_copy_13" data-name="Shape 1 copy 13" class="cls-5" d="M1557.06,174.992c-6.22-4.86,20.3-33.959,24.12-40.54S1563.27,179.853,1557.06,174.992Z"/>
  <path id="Shape_1_copy_14" data-name="Shape 1 copy 14" class="cls-5" d="M1547.06,309.992c-6.22-4.86,20.3-33.959,24.12-40.54S1553.27,314.853,1547.06,309.992Z"/>
  <path id="Shape_1_copy_15" data-name="Shape 1 copy 15" class="cls-5" d="M1532.06,426.992c-6.22-4.86,20.3-33.959,24.12-40.54S1538.27,431.853,1532.06,426.992Z"/>
  <path id="Shape_1_copy_16" data-name="Shape 1 copy 16" class="cls-5" d="M1520.06,508.992c-6.22-4.861,20.3-33.959,24.12-40.54S1526.27,513.853,1520.06,508.992Z"/>
  <path id="Shape_1_copy_19" data-name="Shape 1 copy 19" class="cls-5" d="M1671.06,222.992c-6.22-4.861,20.3-33.959,24.12-40.54S1677.27,227.853,1671.06,222.992Z"/>
  <path id="Shape_1_copy_17" data-name="Shape 1 copy 17" class="cls-5" d="M1521.06,594.992c-6.22-4.861,20.3-33.959,24.12-40.54S1527.27,599.852,1521.06,594.992Z"/>
  <path id="Shape_1_copy_20" data-name="Shape 1 copy 20" class="cls-5" d="M1669.06,318.992c-6.22-4.861,20.3-33.959,24.12-40.54S1675.27,323.853,1669.06,318.992Z"/>
  <path id="Shape_1_copy_21" data-name="Shape 1 copy 21" class="cls-5" d="M1625.06,436.992c-6.22-4.861,20.3-33.96,24.12-40.54S1631.27,441.853,1625.06,436.992Z"/>
  <path id="Shape_1_copy_18" data-name="Shape 1 copy 18" class="cls-5" d="M1511.06,680.992c-6.22-4.861,20.3-33.959,24.12-40.54S1517.27,685.852,1511.06,680.992Z"/>
  <path id="Shape_1_copy" data-name="Shape 1 copy" class="cls-5" d="M1354.69,302.992c6.22-4.86-20.3-33.959-24.12-40.54S1348.48,307.853,1354.69,302.992Z"/>
  <path id="Shape_1_copy_22" data-name="Shape 1 copy 22" class="cls-5" d="M1647.69,268.992c6.22-4.861-20.3-33.959-24.12-40.54S1641.48,273.853,1647.69,268.992Z"/>
  <path id="Shape_1_copy_2" data-name="Shape 1 copy 2" class="cls-5" d="M1364.69,423.992c6.22-4.861-20.3-33.959-24.12-40.54S1358.48,428.853,1364.69,423.992Z"/>
  <path id="Shape_1_copy_23" data-name="Shape 1 copy 23" class="cls-5" d="M1634.69,359.992c6.22-4.861-20.3-33.959-24.12-40.54S1628.48,364.853,1634.69,359.992Z"/>
  <path id="Shape_1_copy_3" data-name="Shape 1 copy 3" class="cls-5" d="M1477.69,545.992c6.22-4.86-20.3-33.959-24.12-40.54S1471.48,550.853,1477.69,545.992Z"/>
  <path id="Shape_1_copy_24" data-name="Shape 1 copy 24" class="cls-5" d="M1592.69,458.992c6.22-4.86-20.3-33.959-24.12-40.54S1586.48,463.853,1592.69,458.992Z"/>
  <path id="Shape_1_copy_4" data-name="Shape 1 copy 4" class="cls-5" d="M1467.69,632.992c6.22-4.861-20.3-33.959-24.12-40.54S1461.48,637.853,1467.69,632.992Z"/>
  <path id="Shape_1_copy_5" data-name="Shape 1 copy 5" class="cls-5" d="M1458.69,723.992c6.22-4.861-20.3-33.959-24.12-40.54S1452.48,728.853,1458.69,723.992Z"/>
  <path id="Shape_1_copy_6" data-name="Shape 1 copy 6" class="cls-5" d="M1528.69,126.992c6.22-4.86-20.3-33.959-24.12-40.54S1522.48,131.853,1528.69,126.992Z"/>
  <path id="Shape_1_copy_7" data-name="Shape 1 copy 7" class="cls-5" d="M1503.69,215.992c6.22-4.861-20.3-33.959-24.12-40.54S1497.48,220.852,1503.69,215.992Z"/>
  <path id="Shape_1_copy_8" data-name="Shape 1 copy 8" class="cls-5" d="M1490.69,350.992c6.22-4.86-20.3-33.959-24.12-40.54S1484.48,355.853,1490.69,350.992Z"/>
  <path id="Shape_1_copy_9" data-name="Shape 1 copy 9" class="cls-5" d="M1477.69,458.992c6.22-4.86-20.3-33.959-24.12-40.54S1471.48,463.853,1477.69,458.992Z"/>
  <path id="sandFRONT" class="cls-6" d="M-0.719,779.111c92.845,5.38,220.759-23.861,295-13,69.43,10.161,211.708,54.435,291,55.985,140.629,2.751,246.421-45.19,317-43.988,56.212,0.958,190.119,28.672,284,30.992,116.82,2.886,301.66-78.209,393-76.979,60.22,0.81,101.37,7.008,156,7s128.96-17.049,186.79-21.856,125.8,245.105,61.21,245.105c-165.45,0-1934.2.207-2030,.207C-151.818,962.578-37.576,776.975-.719,779.111Z"/>
</svg>
