<svg id="cactus" xmlns="http://www.w3.org/2000/svg" width="1920" height="568" viewBox="0 0 1920 568">
  <defs>
    <style>
      .cls-1 {
        fill: #f9d95a;
      }

      .cls-1, .cls-2, .cls-3, .cls-4, .cls-5, .cls-6 {
        fill-rule: evenodd;
      }

      .cls-2 {
        fill: #fff7ca;
      }

      .cls-3 {
        fill: #fff2a8;
      }

      .cls-4 {
        fill: #acc871;
      }

      .cls-5 {
        fill: #fff9df;
      }

      .cls-6 {
        fill: #fee682;
      }
    </style>
  </defs>
  <path id="sandFOOTER" class="cls-1" d="M1924.7,192.041c-32.38-15.073-147.81-44.289-268.7-39.939-119.34,4.295-218.79,124.649-309.55,143.376-73.44,15.152-261.79-40.88-367.068-44.7-88.6-3.212-162.4,86.556-246.748,78.961-133.534-12.024-189.353-91.32-291.778-90.41C308.821,240.505,199.85,107.706,141.078,88.984c-51.7-16.469-104-13.826-136.47.3S-126.049,606.629-46.807,606.629H1944.56C1965.19,606.629,1964.6,210.615,1924.7,192.041Z"/>
  <path id="sandFAR" class="cls-2" d="M-0.145-1980c32.372-15.1,172.276-48.36,293.145-44,119.322,4.3,225.079,45.85,285,59,73.235,16.07,312.3,17.01,367,10.85s199.22-22.37,242-22.85,141.8,6.52,196,15c74.08,11.59,341.39-31.54,400.15-50.3,51.69-16.5,103.98-13.85,136.44.3s130.64,193,51.41,193H-20C-40.622-1819-40.035-1961.39-.145-1980Z"/>
  <path id="sandMIDDLE" class="cls-3" d="M13-1895c37.039,10.5,286.351,55.2,328,56,129.124,2.49,366.648-58.79,499-71,114.229-10.54,353.06,90.88,452,80.28,134.78-14.44,314.77-88.34,363-94.28,40.26-4.96,218.71,3.94,271,18,54.21,14.58,154.7,244.61,53,244.61-127.76,0-1779.641-.03-2015-0.03C-203.474-1661.42-16.346-1903.32,13-1895Z"/>
  <path id="cactus-2" data-name="cactus" class="cls-4" d="M1433.25-1699.44c-11.54-30.35,19.78-269.51,20.92-286.28-60.39-29.03-81.34-52.86-94.18-79.83-14.84-31.18-44.09-258.09,16.67-283.65,61.65-13.7,24.29,127.36,35.55,228.14,4.27,38.18,18.1,61,48.46,74.68,8.22,19.84,2.25-421.71,79.83-415.49,77.78,6.23,0,334.95,8.61,370.29,23.49-.02,42.14-12.56,56.3-56.15,26.61-81.96,14.03-219.45,57.06-219.75,49.04-.34,35.52,176.41-14.22,267.81-28.03,51.5-89.78,53.02-94.32,65.76-27.59,77.44-27.43,335.57-39.47,346.85S1444.79-1669.09,1433.25-1699.44Z"/>
  <path class="cls-5" d="M1367.69-2305.01c6.22-4.86-20.3-33.96-24.12-40.54S1361.48-2300.15,1367.69-2305.01Z"/>
  <path id="Shape_1_copy_10" data-name="Shape 1 copy 10" class="cls-5" d="M1396.06-2264.01c-6.22-4.86,20.3-33.96,24.12-40.54S1402.27-2259.15,1396.06-2264.01Z"/>
  <path id="Shape_1_copy_11" data-name="Shape 1 copy 11" class="cls-5" d="M1391.06-2156.01c-6.22-4.86,20.3-33.96,24.12-40.54S1397.27-2151.15,1391.06-2156.01Z"/>
  <path id="Shape_1_copy_12" data-name="Shape 1 copy 12" class="cls-5" d="M1405.06-2048.01c-6.22-4.86,20.3-33.96,24.12-40.54S1411.27-2043.15,1405.06-2048.01Z"/>
  <path id="Shape_1_copy_13" data-name="Shape 1 copy 13" class="cls-5" d="M1557.06-2353.01c-6.22-4.86,20.3-33.96,24.12-40.54S1563.27-2348.15,1557.06-2353.01Z"/>
  <path id="Shape_1_copy_14" data-name="Shape 1 copy 14" class="cls-5" d="M1547.06-2218.01c-6.22-4.86,20.3-33.96,24.12-40.54S1553.27-2213.15,1547.06-2218.01Z"/>
  <path id="Shape_1_copy_15" data-name="Shape 1 copy 15" class="cls-5" d="M1532.06-2101.01c-6.22-4.86,20.3-33.96,24.12-40.54S1538.27-2096.15,1532.06-2101.01Z"/>
  <path id="Shape_1_copy_16" data-name="Shape 1 copy 16" class="cls-5" d="M1520.06-2019.01c-6.22-4.86,20.3-33.96,24.12-40.54S1526.27-2014.15,1520.06-2019.01Z"/>
  <path id="Shape_1_copy_19" data-name="Shape 1 copy 19" class="cls-5" d="M1671.06-2305.01c-6.22-4.86,20.3-33.96,24.12-40.54S1677.27-2300.15,1671.06-2305.01Z"/>
  <path id="Shape_1_copy_17" data-name="Shape 1 copy 17" class="cls-5" d="M1521.06-1933.01c-6.22-4.86,20.3-33.96,24.12-40.54S1527.27-1928.15,1521.06-1933.01Z"/>
  <path id="Shape_1_copy_20" data-name="Shape 1 copy 20" class="cls-5" d="M1669.06-2209.01c-6.22-4.86,20.3-33.96,24.12-40.54S1675.27-2204.15,1669.06-2209.01Z"/>
  <path id="Shape_1_copy_21" data-name="Shape 1 copy 21" class="cls-5" d="M1625.06-2091.01c-6.22-4.86,20.3-33.96,24.12-40.54S1631.27-2086.15,1625.06-2091.01Z"/>
  <path id="Shape_1_copy_18" data-name="Shape 1 copy 18" class="cls-5" d="M1511.06-1847.01c-6.22-4.86,20.3-33.96,24.12-40.54S1517.27-1842.15,1511.06-1847.01Z"/>
  <path id="Shape_1_copy" data-name="Shape 1 copy" class="cls-5" d="M1354.69-2225.01c6.22-4.86-20.3-33.96-24.12-40.54S1348.48-2220.15,1354.69-2225.01Z"/>
  <path id="Shape_1_copy_22" data-name="Shape 1 copy 22" class="cls-5" d="M1647.69-2259.01c6.22-4.86-20.3-33.96-24.12-40.54S1641.48-2254.15,1647.69-2259.01Z"/>
  <path id="Shape_1_copy_2" data-name="Shape 1 copy 2" class="cls-5" d="M1364.69-2104.01c6.22-4.86-20.3-33.96-24.12-40.54S1358.48-2099.15,1364.69-2104.01Z"/>
  <path id="Shape_1_copy_23" data-name="Shape 1 copy 23" class="cls-5" d="M1634.69-2168.01c6.22-4.86-20.3-33.96-24.12-40.54S1628.48-2163.15,1634.69-2168.01Z"/>
  <path id="Shape_1_copy_3" data-name="Shape 1 copy 3" class="cls-5" d="M1477.69-1982.01c6.22-4.86-20.3-33.96-24.12-40.54S1471.48-1977.15,1477.69-1982.01Z"/>
  <path id="Shape_1_copy_24" data-name="Shape 1 copy 24" class="cls-5" d="M1592.69-2069.01c6.22-4.86-20.3-33.96-24.12-40.54S1586.48-2064.15,1592.69-2069.01Z"/>
  <path id="Shape_1_copy_4" data-name="Shape 1 copy 4" class="cls-5" d="M1467.69-1895.01c6.22-4.86-20.3-33.96-24.12-40.54S1461.48-1890.15,1467.69-1895.01Z"/>
  <path id="Shape_1_copy_5" data-name="Shape 1 copy 5" class="cls-5" d="M1458.69-1804.01c6.22-4.86-20.3-33.96-24.12-40.54S1452.48-1799.15,1458.69-1804.01Z"/>
  <path id="Shape_1_copy_6" data-name="Shape 1 copy 6" class="cls-5" d="M1528.69-2401.01c6.22-4.86-20.3-33.96-24.12-40.54S1522.48-2396.15,1528.69-2401.01Z"/>
  <path id="Shape_1_copy_7" data-name="Shape 1 copy 7" class="cls-5" d="M1503.69-2312.01c6.22-4.86-20.3-33.96-24.12-40.54S1497.48-2307.15,1503.69-2312.01Z"/>
  <path id="Shape_1_copy_8" data-name="Shape 1 copy 8" class="cls-5" d="M1490.69-2177.01c6.22-4.86-20.3-33.96-24.12-40.54S1484.48-2172.15,1490.69-2177.01Z"/>
  <path id="Shape_1_copy_9" data-name="Shape 1 copy 9" class="cls-5" d="M1477.69-2069.01c6.22-4.86-20.3-33.96-24.12-40.54S1471.48-2064.15,1477.69-2069.01Z"/>
  <path id="sandFRONT" class="cls-6" d="M-0.719-1748.89c92.845,5.38,220.759-23.86,295-13,69.43,10.17,211.708,54.44,291,55.99,140.629,2.75,246.421-45.19,317-43.99,56.212,0.96,190.119,28.67,284,30.99,116.82,2.89,301.66-78.21,393-76.98,60.22,0.81,101.37,7.01,156,7s128.96-17.05,186.79-21.85,125.8,245.1,61.21,245.1c-165.45,0-1934.2.21-2030,.21C-151.818-1565.42-37.576-1751.02-.719-1748.89Z"/>
</svg>
