<svg id="footer" xmlns="http://www.w3.org/2000/svg" width="1920" height="1226" viewBox="0 0 1920 1226">
  <defs>
    <style>
      .cls-1 {
        fill: #29013c;
      }

      .cls-1, .cls-2, .cls-3, .cls-4, .cls-5 {
        fill-rule: evenodd;
      }

      .cls-2 {
        fill: #180e29;
      }

      .cls-3 {
        fill: #fff;
      }

      .cls-4 {
        fill: #1c0c39;
      }

      .cls-5 {
        fill: #2d2044;
      }
    </style>
  </defs>
  <path id="footerBlob" class="cls-1" d="M-15,3252c26.87,29.6-62.978-379.92,16-386,31.981-2.46,102.779,51.19,240,62s192.865-40.2,333-19c372.6,56.36,410.453,246.51,698,209,225.76-29.45,333.42-170.55,388-215,56.67-46.15,156.62-70.03,209-89,45.04-16.31,68.92-46.4,72-40,30.94,64.28,14.97,401.54,3,484S-41.87,3222.4-15,3252Z"/>
  <path id="cloudLarge_copy" data-name="cloudLarge copy" class="cls-2" d="M1909.08,3501.96c148.91-46.49,20.26-242.13,178-265.22s288.94-134.02-22.81-246.33-221.24-337.57-429.25-484.91-528.21,204.85-611.73,306.54C903.773,2957.56,660.724,3101.07,452.8,3055.72c-277.078-60.42-708.677-181.43-617.84,180.55,12.043,47.99,778.467,307.74,884.152,37.69C870.184,2887.93,1252,2937.13,1466.45,2943.47c271.21,8.01,451.67,2.6,460.06,311.06C1930.52,3402.06,1786.64,3540.19,1909.08,3501.96Z"/>
  <path id="star4_copy" data-name="star4 copy" class="cls-3" d="M1807.82,2864.25c27.79,40.29,27.79,40.29,61.39,16.88-33.6,23.41-33.6,23.41-5.41,63.43-28.19-40.02-28.19-40.02-61.78-16.6C1835.61,2904.54,1835.61,2904.54,1807.82,2864.25Z"/>
  <path id="star3_copy" data-name="star3 copy" class="cls-3" d="M198.006,3006.37c-75.58,15.63-75.58,15.63-62.153,78.62C122.426,3022,122.426,3022,47,3038.38,122.426,3022,122.426,3022,109,2959.01,122.426,3022,122.426,3022,198.006,3006.37Z"/>
  <path id="headerBlob" class="cls-4" d="M-36-28C138.651-88.193,1688.63-61,1958-18s44.86,1081.32-38,1080c-15.95-.26-198.5-75.958-297-86-75.16-7.662-229.35,23.609-315,24-253.03,1.15-462.516-232.454-667-220-291.987,17.783-394.7,185.516-453,230-54.69,41.73-186.594,74.07-212,82C-86.779,1111.6-210.651,32.193-36-28Z"/>
  <path id="cloudLarge" class="cls-2" d="M450-216C296.755-245.189,318-12,168-66S-150-84,72,162s36,402,150,630,562.408,68.314,684,18c174-72,456-84,618,54,215.88,183.9,539.48,494.06,630,132,12-48-541.5-638.349-762-450-315.2,269.237-628.745,45.875-814.887-60.8C341.7,350.288,180,270,318-6,384-138,576-192,450-216Z"/>
  <path id="asteroid3" class="cls-5" d="M1158,811c-30.43-62.928-108.99-31.194-114-5-3.27,17.1,4.29,48.842,20,53C1085.81,864.774,1170.16,836.146,1158,811Z"/>
  <path id="asteroid3_copy" data-name="asteroid3 copy" class="cls-5" d="M-33.866,573.515C3.648,514.849,78.048,555.353,80,581.828c1.275,17.285-9.916,47.781-26.005,50.065C31.656,635.064-48.857,596.959-33.866,573.515Z"/>
  <path id="asteroid3_copy_2" data-name="asteroid3 copy 2" class="cls-5" d="M1654.13,3026.51c37.52-58.66,111.92-18.16,113.87,8.32,1.28,17.28-9.92,47.78-26,50.06C1719.66,3088.06,1639.14,3049.96,1654.13,3026.51Z"/>
  <path id="asteroid2" class="cls-5" d="M1628.89,760.011c-10.57-15.079,21.03-9.166,24.37-9.758,42.5-7.532,57.19,51,43.79,62.407-10.01,8.51-46.73,7.4-65.8-2.7S1636.44,770.783,1628.89,760.011Z"/>
  <path id="asteroid2_copy" data-name="asteroid2 copy" class="cls-5" d="M313.31,972.582c19.151,12.829-20.37,20.123-24,22.315-46.164,27.863-89.793-33.759-79.32-53.071,7.815-14.411,51.142-29.609,77.967-26.395S299.63,963.418,313.31,972.582Z"/>
  <path id="cloudSmall" class="cls-2" d="M1200-42c-172.08-18.437-225.151-68.527-300,162-90.962,280.153,312,402,354,162,35.12-200.685,756-228,714-330S1368-24,1200-42Z"/>
  <path id="asteroid1" class="cls-5" d="M1468,439c-5.61,2.121-12.38-.39-20.4-6.021-12.66-8.884-58.64,13.572-64.64,39.774-7.81,34.115,26.16,82.614,48.48,85.232,36.57,4.291,24.9-17.959,59.79-6.494,7.87,2.564,17.24-9.5,22.63-18.669,8.99-15.3-2.75-24.388,13.73-34.093,10.93-6.433-6.57-47.276-22.62-57.633C1491.73,432.551,1479.47,434.661,1468,439Z"/>
  <path id="asteroid1_copy" data-name="asteroid1 copy" class="cls-5" d="M533,3004c-5.606,2.12-12.377-.39-20.4-6.02-12.656-8.88-58.64,13.57-64.64,39.77-7.811,34.12,26.165,82.62,48.48,85.24,36.566,4.29,24.9-17.96,59.792-6.5,7.868,2.57,17.237-9.5,22.624-18.67,8.99-15.3-2.746-24.39,13.736-34.09,10.925-6.43-6.573-47.28-22.624-57.63C556.725,2997.55,544.466,2999.66,533,3004Z"/>
  <path id="star1" class="cls-3" d="M1663.62,13C1663,138.5,1663,138.5,1768,138.5c-105,0-105,0-104.38,125.5C1663,138.5,1663,138.5,1558,138.5,1663,138.5,1663,138.5,1663.62,13Z"/>
  <path id="star2" class="cls-3" d="M177.352,878.622C81.5,898.5,81.5,898.5,98.528,978.61,81.5,898.5,81.5,898.5-14.15,919.326,81.5,898.5,81.5,898.5,64.472,818.39,81.5,898.5,81.5,898.5,177.352,878.622Z"/>
  <path id="star4" class="cls-3" d="M1186.82,426.25c27.79,40.293,27.79,40.293,61.39,16.878-33.6,23.415-33.6,23.415-5.41,63.431-28.19-40.016-28.19-40.016-61.78-16.6C1214.61,466.543,1214.61,466.543,1186.82,426.25Z"/>
  <path id="star3" class="cls-3" d="M1910.35,798.622c-95.85,19.878-95.85,19.878-78.82,99.988-17.03-80.11-17.03-80.11-112.68-59.284,95.65-20.826,95.65-20.826,78.62-100.936C1814.5,818.5,1814.5,818.5,1910.35,798.622Z"/>
  <path id="star3_copy_2" data-name="star3 copy 2" class="cls-3" d="M705.5,213.906c-109.647-22.66-109.647-22.66-166.06,111.25,56.413-133.91,56.413-133.91-53.9-154.985C595.857,191.246,595.857,191.246,652.27,57.336,595.857,191.246,595.857,191.246,705.5,213.906Z"/>
</svg>
