<svg id="footer" xmlns="http://www.w3.org/2000/svg" width="1920" height="863" viewBox="0 0 1920 863">
  <defs>
    <style>
      .cls-1 {
        fill: #29013c;
      }

      .cls-1, .cls-2, .cls-3, .cls-4, .cls-5 {
        fill-rule: evenodd;
      }

      .cls-2 {
        fill: #180e29;
      }

      .cls-3 {
        fill: #fff;
      }

      .cls-4 {
        fill: #1c0c39;
      }

      .cls-5 {
        fill: #2d2044;
      }
    </style>
  </defs>
  <path id="footerBlob" class="cls-1" d="M-15,875C11.87,904.6-77.978,495.082,1,489c31.981-2.463,102.779,51.187,240,62s192.865-40.2,333-19c372.6,56.355,410.453,246.512,698,209,225.76-29.452,333.42-170.551,388-215,56.67-46.153,156.62-70.033,209-89,45.04-16.31,68.92-46.4,72-40,30.94,64.282,14.97,401.541,3,484S-41.87,845.4-15,875Z"/>
  <path id="cloudLarge_copy" data-name="cloudLarge copy" class="cls-2" d="M1909.08,1124.96c148.91-46.49,20.26-242.135,178-265.216s288.94-134.021-22.81-246.333S1843.03,275.843,1635.02,128.5s-528.21,204.855-611.73,306.543C903.773,580.559,660.724,724.069,452.8,678.724,175.723,618.3-255.876,497.288-165.039,859.272c12.043,47.99,778.467,307.738,884.152,37.686C870.184,510.935,1252,560.127,1466.45,566.466c271.21,8.017,451.67,2.6,460.06,311.068C1930.52,1025.06,1786.64,1163.19,1909.08,1124.96Z"/>
  <path id="star4_copy" data-name="star4 copy" class="cls-3" d="M1807.82,487.25c27.79,40.293,27.79,40.293,61.39,16.878-33.6,23.415-33.6,23.415-5.41,63.431-28.19-40.016-28.19-40.016-61.78-16.6C1835.61,527.543,1835.61,527.543,1807.82,487.25Z"/>
  <path id="star3_copy" data-name="star3 copy" class="cls-3" d="M198.006,629.37c-75.58,15.63-75.58,15.63-62.153,78.618C122.426,645,122.426,645,47,661.375,122.426,645,122.426,645,109,582.012,122.426,645,122.426,645,198.006,629.37Z"/>
  <path id="headerBlob" class="cls-4" d="M-36-2405c174.651-60.19,1724.63-33,1994,10s44.86,1081.32-38,1080c-15.95-.26-198.5-75.96-297-86-75.16-7.66-229.35,23.61-315,24-253.03,1.15-462.516-232.45-667-220-291.987,17.78-394.7,185.52-453,230-54.69,41.73-186.594,74.07-212,82C-86.779-1265.4-210.651-2344.81-36-2405Z"/>
  <path id="cloudLarge" class="cls-2" d="M450-2593c-153.245-29.19-132,204-282,150s-318-18-96,228,36,402,150,630,562.408,68.31,684,18c174-72,456-84,618,54,215.88,183.9,539.48,494.06,630,132,12-48-541.5-638.35-762-450-315.2,269.24-628.745,45.88-814.887-60.8C341.7-2026.71,180-2107,318-2383,384-2515,576-2569,450-2593Z"/>
  <path id="asteroid3" class="cls-5" d="M1158-1566c-30.43-62.93-108.99-31.19-114-5-3.27,17.1,4.29,48.84,20,53C1085.81-1512.23,1170.16-1540.85,1158-1566Z"/>
  <path id="asteroid3_copy" data-name="asteroid3 copy" class="cls-5" d="M-33.866-1803.49C3.648-1862.15,78.048-1821.65,80-1795.17c1.275,17.28-9.916,47.78-26.005,50.06C31.656-1741.94-48.857-1780.04-33.866-1803.49Z"/>
  <path id="asteroid3_copy_2" data-name="asteroid3 copy 2" class="cls-5" d="M1654.13,649.515c37.52-58.666,111.92-18.162,113.87,8.313,1.28,17.285-9.92,47.781-26,50.065C1719.66,711.064,1639.14,672.958,1654.13,649.515Z"/>
  <path id="asteroid2" class="cls-5" d="M1628.89-1616.99c-10.57-15.08,21.03-9.16,24.37-9.76,42.5-7.53,57.19,51,43.79,62.41-10.01,8.51-46.73,7.4-65.8-2.7S1636.44-1606.22,1628.89-1616.99Z"/>
  <path id="asteroid2_copy" data-name="asteroid2 copy" class="cls-5" d="M313.31-1404.42c19.151,12.83-20.37,20.12-24,22.32-46.164,27.86-89.793-33.76-79.32-53.07,7.815-14.41,51.142-29.61,77.967-26.4S299.63-1413.58,313.31-1404.42Z"/>
  <path id="cloudSmall" class="cls-2" d="M1200-2419c-172.08-18.44-225.151-68.53-300,162-90.962,280.15,312,402,354,162,35.12-200.69,756-228,714-330S1368-2401,1200-2419Z"/>
  <path id="asteroid1" class="cls-5" d="M1468-1938c-5.61,2.12-12.38-.39-20.4-6.02-12.66-8.88-58.64,13.57-64.64,39.77-7.81,34.12,26.16,82.62,48.48,85.24,36.57,4.29,24.9-17.96,59.79-6.5,7.87,2.57,17.24-9.5,22.63-18.67,8.99-15.3-2.75-24.39,13.73-34.09,10.93-6.43-6.57-47.28-22.62-57.63C1491.73-1944.45,1479.47-1942.34,1468-1938Z"/>
  <path id="asteroid1_copy" data-name="asteroid1 copy" class="cls-5" d="M533,627c-5.606,2.121-12.377-.39-20.4-6.022-12.656-8.883-58.64,13.573-64.64,39.775-7.811,34.115,26.165,82.614,48.48,85.232,36.566,4.29,24.9-17.959,59.792-6.494,7.868,2.564,17.237-9.5,22.624-18.669,8.99-15.3-2.746-24.388,13.736-34.093,10.925-6.433-6.573-47.276-22.624-57.633C556.725,620.551,544.466,622.661,533,627Z"/>
  <path id="star1" class="cls-3" d="M1663.62-2364c-0.62,125.5-.62,125.5,104.38,125.5-105,0-105,0-104.38,125.5-0.62-125.5-.62-125.5-105.62-125.5C1663-2238.5,1663-2238.5,1663.62-2364Z"/>
  <path id="star2" class="cls-3" d="M177.352-1498.38C81.5-1478.5,81.5-1478.5,98.528-1398.39,81.5-1478.5,81.5-1478.5-14.15-1457.67c95.65-20.83,95.65-20.83,78.622-100.94C81.5-1478.5,81.5-1478.5,177.352-1498.38Z"/>
  <path id="star4" class="cls-3" d="M1186.82-1950.75c27.79,40.29,27.79,40.29,61.39,16.88-33.6,23.41-33.6,23.41-5.41,63.43-28.19-40.02-28.19-40.02-61.78-16.6C1214.61-1910.46,1214.61-1910.46,1186.82-1950.75Z"/>
  <path id="star3" class="cls-3" d="M1910.35-1578.38c-95.85,19.88-95.85,19.88-78.82,99.99-17.03-80.11-17.03-80.11-112.68-59.28,95.65-20.83,95.65-20.83,78.62-100.94C1814.5-1558.5,1814.5-1558.5,1910.35-1578.38Z"/>
  <path id="star3_copy_2" data-name="star3 copy 2" class="cls-3" d="M705.5-2163.09c-109.647-22.66-109.647-22.66-166.06,111.25,56.413-133.91,56.413-133.91-53.9-154.99,110.315,21.08,110.315,21.08,166.728-112.83C595.857-2185.75,595.857-2185.75,705.5-2163.09Z"/>
</svg>
