<svg id="mountains" xmlns="http://www.w3.org/2000/svg" xmlns:xlink="http://www.w3.org/1999/xlink" width="600" height="516" viewBox="0 0 600 516">
  <metadata><?xpacket begin="﻿" id="W5M0MpCehiHzreSzNTczkc9d"?>
<x:xmpmeta xmlns:x="adobe:ns:meta/" x:xmptk="Adobe XMP Core 5.6-c142 79.160924, 2017/07/13-01:06:39        ">
   <rdf:RDF xmlns:rdf="http://www.w3.org/1999/02/22-rdf-syntax-ns#">
      <rdf:Description rdf:about=""/>
   </rdf:RDF>
</x:xmpmeta>
                                                                                                    
                                                                                                    
                                                                                                    
                                                                                                    
                                                                                                    
                                                                                                    
                                                                                                    
                                                                                                    
                                                                                                    
                                                                                                    
                                                                                                    
                                                                                                    
                                                                                                    
                                                                                                    
                                                                                                    
                                                                                                    
                                                                                                    
                                                                                                    
                                                                                                    
                                                                                                    
                           
<?xpacket end="w"?></metadata>
<defs>
    <style>
      .cls-1, .cls-2, .cls-3, .cls-4 {
        fill: #555;
      }

      .cls-1, .cls-2, .cls-3, .cls-4, .cls-5 {
        fill-rule: evenodd;
      }

      .cls-1 {
        filter: url(#filter);
      }

      .cls-2 {
        filter: url(#filter-2);
      }

      .cls-3 {
        filter: url(#filter-3);
      }

      .cls-4 {
        filter: url(#filter-4);
      }

      .cls-5 {
        fill: blue;
      }
    </style>
    <filter id="filter" x="231" y="103" width="132" height="328.031" filterUnits="userSpaceOnUse">
      <feOffset result="offset" dy="-5" in="SourceAlpha"/>
      <feGaussianBlur result="blur" stdDeviation="2.236"/>
      <feFlood result="flood" flood-color="blue" flood-opacity="0.2"/>
      <feComposite result="composite" operator="in" in2="blur"/>
      <feBlend result="blend" in="SourceGraphic"/>
      <feFlood result="flood-2" flood-color="blue" flood-opacity="0.2"/>
      <feComposite result="composite-2" operator="in" in2="SourceGraphic"/>
      <feBlend result="blend-2" mode="multiply" in2="blend"/>
    </filter>
    <filter id="filter-2" x="258" y="103" width="105" height="323" filterUnits="userSpaceOnUse">
      <feOffset result="offset" dy="-5" in="SourceAlpha"/>
      <feGaussianBlur result="blur" stdDeviation="2.236"/>
      <feFlood result="flood" flood-color="blue" flood-opacity="0.2"/>
      <feComposite result="composite" operator="in" in2="blur"/>
      <feBlend result="blend" in="SourceGraphic"/>
      <feFlood result="flood-2" flood-color="blue" flood-opacity="0.2"/>
      <feComposite result="composite-2" operator="in" in2="SourceGraphic"/>
      <feBlend result="blend-2" mode="multiply" in2="blend"/>
    </filter>
    <filter id="filter-3" x="253" y="114" width="100" height="316.594" filterUnits="userSpaceOnUse">
      <feOffset result="offset" dy="-5" in="SourceAlpha"/>
      <feGaussianBlur result="blur" stdDeviation="2.236"/>
      <feFlood result="flood" flood-color="blue" flood-opacity="0.2"/>
      <feComposite result="composite" operator="in" in2="blur"/>
      <feBlend result="blend" in="SourceGraphic"/>
      <feFlood result="flood-2" flood-color="blue" flood-opacity="0.2"/>
      <feComposite result="composite-2" operator="in" in2="SourceGraphic"/>
      <feBlend result="blend-2" mode="multiply" in2="blend"/>
    </filter>
    <filter id="filter-4" x="237" y="126" width="101" height="300.375" filterUnits="userSpaceOnUse">
      <feOffset result="offset" dy="-5" in="SourceAlpha"/>
      <feGaussianBlur result="blur" stdDeviation="2.236"/>
      <feFlood result="flood" flood-color="blue" flood-opacity="0.2"/>
      <feComposite result="composite" operator="in" in2="blur"/>
      <feBlend result="blend" in="SourceGraphic"/>
      <feFlood result="flood-2" flood-color="blue" flood-opacity="0.2"/>
      <feComposite result="composite-2" operator="in" in2="SourceGraphic"/>
      <feBlend result="blend-2" mode="multiply" in2="blend"/>
    </filter>
  </defs>
  <g id="alterBLUE">
    <path class="cls-1" d="M255.5,415.987c3.377,9.474,31.306,23.647,35.775,8.128,4.526-15.713-5.331-27.6-8.081-50.7-10.11-84.92,27.457-100.237,58.329-133.053,28.633-30.436,15.68-86.579-6.611-108.369-23.363-22.837-58.322-24.871-70.383-12.385-10.072,10.427-8.123,19.089-4.278,22.061,6.109,4.721,34.643,7.149,42.775,16.395,6.539,7.437,8.405,28.872-2.2,35.042-17.743,10.326-37.29,15.5-56.911,64.286C221.387,313.43,247.664,393.991,255.5,415.987Z"/>
    <path id="Shape_10_copy" data-name="Shape 10 copy" class="cls-2" d="M289.176,410.489c4.469,9.01-.489,19.966,2.1,13.626,6.189-15.136-5.331-27.6-8.081-50.7-10.11-84.92,27.457-100.237,58.329-133.053,28.633-30.436,15.68-86.579-6.611-108.369-23.363-22.837-58.322-24.871-70.383-12.385-10.072,10.427,19.151,1.744,32.143,2.816,24.3,2,45.485,23.427,53.082,35.64,10.468,16.826-1.852,56.248-11.815,65.971-15.018,14.657-39.747,40.329-53.476,91.092C268.545,374,278.5,388.965,289.176,410.489Z"/>
    <path id="Shape_10_copy_2" data-name="Shape 10 copy 2" class="cls-3" d="M282.924,422.1c2.485,3.5-8.257,7.518-5.456,8.128,26.023,4.041-5.332-27.6-8.082-50.7-10.109-84.92,24.691-113.382,55.562-146.2,28.634-30.436,28.823-62.365,6.532-84.154-23.363-22.838-58.684-32.055-71.758-20.633-9.918,10.029,20.645,9.009,33.518,11.063,23.593,3.765,46.941,22.307,52.337,35.641,7.188,17.763-28.595,45.25-38.558,54.974C292,244.877,271.367,256.43,261.641,328.19,253.043,391.632,272.01,400.7,282.924,422.1Z"/>
    <path id="Shape_10_copy_3" data-name="Shape 10 copy 3" class="cls-4" d="M264.413,416.487c2.486,3.5-7.936.3-5.5,3.436,27.468,26.987-13.389-36.587-9.621-78.355,6.1-67.624,6.883-88.251,43.293-114.784,57.192-41.678,42.094-62.187,19.929-77.668-19.576-13.673-59.446-15.975-54.288-10.31,0.321,7.078,36.074,8.355,43.98,18.557,0.925,1.4,15.753,4.987,21.149,18.321,7.188,17.762-36.612,35.19-46.575,44.914-15.018,14.656-30.172,51.567-35.3,103.9C238.313,367.985,253.5,395.083,264.413,416.487Z"/>
    <path id="flameBLUE" class="cls-5" d="M281.941,152.552c-6.425,16.481-24.251,51.79.4,43.828C303.7,189.483,278.926,167.071,281.941,152.552Z"/>
  </g>
</svg>
