<svg xmlns="http://www.w3.org/2000/svg" xmlns:xlink="http://www.w3.org/1999/xlink" width="828" height="1224" viewBox="0 0 828 1224">
  <metadata><?xpacket begin="﻿" id="W5M0MpCehiHzreSzNTczkc9d"?>
<x:xmpmeta xmlns:x="adobe:ns:meta/" x:xmptk="Adobe XMP Core 5.6-c142 79.160924, 2017/07/13-01:06:39        ">
   <rdf:RDF xmlns:rdf="http://www.w3.org/1999/02/22-rdf-syntax-ns#">
      <rdf:Description rdf:about=""/>
   </rdf:RDF>
</x:xmpmeta>
                                                                                                    
                                                                                                    
                                                                                                    
                                                                                                    
                                                                                                    
                                                                                                    
                                                                                                    
                                                                                                    
                                                                                                    
                                                                                                    
                                                                                                    
                                                                                                    
                                                                                                    
                                                                                                    
                                                                                                    
                                                                                                    
                                                                                                    
                                                                                                    
                                                                                                    
                                                                                                    
                           
<?xpacket end="w"?></metadata>
<defs>
    <style>
      .cls-1 {
        fill: #252525;
        fill-rule: evenodd;
        filter: url(#filter);
      }
    </style>
    <filter id="filter" x="65" y="-910" width="692" height="1991" filterUnits="userSpaceOnUse">
      <feGaussianBlur result="blur" stdDeviation="10.667" in="SourceAlpha"/>
      <feComposite result="composite"/>
      <feComposite result="composite-2"/>
      <feComposite result="composite-3"/>
      <feFlood result="flood" flood-color="#252525"/>
      <feComposite result="composite-4" operator="in" in2="composite-3"/>
      <feBlend result="blend" in2="SourceGraphic"/>
      <feBlend result="blend-2" in="SourceGraphic"/>
    </filter>
  </defs>
  <path id="person" class="cls-1" d="M417.632-61.386c-10.2-.441,5.592-174.049-5-326.943-9.484-136.826,21.384-383.878,5-426.787s-87.194-52.136-81.159,38.653c6.024,90.636-44.455,289.586-51.486,411.437-6.924,119.985-32.9,305.983-42.1,465.981-9.253,160.8,12.43,223.107-13.414,316.953-10.834,39.34-65.94-294.275-55.317-363.336C183.405-5.567,206.474-53.159,168.76-77.3,143.5-93.473,95.751-57.952,99.165,18.4c3.3,73.75,8.857,497.4,64.6,608.235,38.558,76.658,131.415,110.62,118.6,127.554C249.981,796.971,198.426,852.274,224.291,977,244.226,1073.13,394.4,1062.79,427,989c28.159-63.743-6.194-167.782-20.962-203.89-17.787-43.489,18.017-13.079,127.16-76.891S720.213,255.185,715.216,108.686c-0.476-13.969,40.74-136.472-61.835-143.015C628.747-35.9,627.944,58.8,635.391,132.044c8.933,87.844-47.674,310.821-103.027,367.035-13.559,13.77,47.795-286.715,51.452-351.74,4.131-73.484,27.5-503.089,11.594-568.2-6.9-28.231-19.854-158.671-65.7-228.051-5.971-9.037,60.81-221.447-46.376-228.052-50.222-3.095-30.45,237.249-30.918,282.165-0.545,52.269,11.284,143.178,19.323,197.13C482.433-325.892,427.856-60.944,417.632-61.386Z"/>
</svg>
